<svg width="146" height="31" viewBox="0 0 146 31" fill="none" xmlns="http://www.w3.org/2000/svg">
<path d="M0.0795455 7.27273V0.90909H25.3636V7.27273H16.6136V30H8.82955V7.27273H0.0795455ZM31.3223 30L22.7428 0.90909H31.5496L35.5268 18.8068H35.7541L40.47 0.90909H47.4018L52.1178 18.8636H52.345L56.3223 0.90909H65.1291L56.5496 30H48.9928L44.0496 13.75H43.8223L38.8791 30H31.3223ZM89.6318 15.4545C89.6318 18.6932 89.0021 21.4252 87.7426 23.6506C86.4831 25.8665 84.7833 27.5473 82.6432 28.6932C80.503 29.8295 78.1167 30.3977 75.4841 30.3977C72.8326 30.3977 70.4367 29.8248 68.2966 28.679C66.1659 27.5237 64.4708 25.8381 63.2114 23.6222C61.9614 21.3968 61.3364 18.6742 61.3364 15.4545C61.3364 12.2159 61.9614 9.48864 63.2114 7.27273C64.4708 5.04735 66.1659 3.36648 68.2966 2.23011C70.4367 1.08428 72.8326 0.511363 75.4841 0.511363C78.1167 0.511363 80.503 1.08428 82.6432 2.23011C84.7833 3.36648 86.4831 5.04735 87.7426 7.27273C89.0021 9.48864 89.6318 12.2159 89.6318 15.4545ZM81.5068 15.4545C81.5068 13.7121 81.2748 12.2443 80.8108 11.0511C80.3563 9.84848 79.6792 8.93939 78.7795 8.32386C77.8894 7.69886 76.7909 7.38636 75.4841 7.38636C74.1773 7.38636 73.0741 7.69886 72.1744 8.32386C71.2843 8.93939 70.6072 9.84848 70.1432 11.0511C69.6886 12.2443 69.4614 13.7121 69.4614 15.4545C69.4614 17.197 69.6886 18.6695 70.1432 19.8722C70.6072 21.0653 71.2843 21.9744 72.1744 22.5994C73.0741 23.215 74.1773 23.5227 75.4841 23.5227C76.7909 23.5227 77.8894 23.215 78.7795 22.5994C79.6792 21.9744 80.3563 21.0653 80.8108 19.8722C81.2748 18.6695 81.5068 17.197 81.5068 15.4545Z" fill="white"/>
<path d="M103.648 30H92.4547V0.90909H103.534C106.527 0.90909 109.112 1.49148 111.29 2.65625C113.477 3.81155 115.163 5.47822 116.347 7.65625C117.54 9.82481 118.137 12.4242 118.137 15.4545C118.137 18.4848 117.545 21.089 116.361 23.267C115.177 25.4356 113.501 27.1023 111.333 28.267C109.164 29.4223 106.602 30 103.648 30ZM100.352 23.2955H103.364C104.803 23.2955 106.03 23.0634 107.043 22.5994C108.065 22.1354 108.842 21.3352 109.372 20.1989C109.912 19.0625 110.182 17.4811 110.182 15.4545C110.182 13.428 109.907 11.8466 109.358 10.7102C108.818 9.57386 108.023 8.77367 106.972 8.30966C105.93 7.84564 104.652 7.61364 103.137 7.61364H100.352V23.2955ZM145.572 15.4545C145.572 18.6932 144.943 21.4252 143.683 23.6506C142.424 25.8665 140.724 27.5473 138.584 28.6932C136.444 29.8295 134.057 30.3977 131.425 30.3977C128.773 30.3977 126.377 29.8248 124.237 28.679C122.107 27.5237 120.411 25.8381 119.152 23.6222C117.902 21.3968 117.277 18.6742 117.277 15.4545C117.277 12.2159 117.902 9.48864 119.152 7.27273C120.411 5.04735 122.107 3.36648 124.237 2.23011C126.377 1.08428 128.773 0.511363 131.425 0.511363C134.057 0.511363 136.444 1.08428 138.584 2.23011C140.724 3.36648 142.424 5.04735 143.683 7.27273C144.943 9.48864 145.572 12.2159 145.572 15.4545ZM137.447 15.4545C137.447 13.7121 137.215 12.2443 136.751 11.0511C136.297 9.84848 135.62 8.93939 134.72 8.32386C133.83 7.69886 132.732 7.38636 131.425 7.38636C130.118 7.38636 129.015 7.69886 128.115 8.32386C127.225 8.93939 126.548 9.84848 126.084 11.0511C125.629 12.2443 125.402 13.7121 125.402 15.4545C125.402 17.197 125.629 18.6695 126.084 19.8722C126.548 21.0653 127.225 21.9744 128.115 22.5994C129.015 23.215 130.118 23.5227 131.425 23.5227C132.732 23.5227 133.83 23.215 134.72 22.5994C135.62 21.9744 136.297 21.0653 136.751 19.8722C137.215 18.6695 137.447 17.197 137.447 15.4545Z" fill="url(#paint0_linear_88_3)"/>
<defs>
<linearGradient id="paint0_linear_88_3" x1="73.5" y1="39" x2="73.5" y2="-9" gradientUnits="userSpaceOnUse">
<stop offset="0.192308" stop-color="#EF6A36"/>
<stop offset="0.850962" stop-color="#0267FF"/>
</linearGradient>
</defs>
</svg>
