<svg width="234" height="67" viewBox="0 0 234 67" fill="none" xmlns="http://www.w3.org/2000/svg">
<path d="M64.4219 19.1953V14H95.3789V19.1953H82.8984V54H76.8828V19.1953H64.4219ZM102.067 54L93.2393 24H99.2744L105.153 46.0312H105.446L111.345 24H117.38L123.239 45.9336H123.532L129.372 24H135.407L126.599 54H120.642L114.548 32.3398H114.099L108.005 54H102.067ZM149.923 54.6055C147.11 54.6055 144.656 53.9609 142.56 52.6719C140.463 51.3828 138.836 49.5794 137.677 47.2617C136.518 44.944 135.938 42.2357 135.938 39.1367C135.938 36.0247 136.518 33.3034 137.677 30.9727C138.836 28.6419 140.463 26.832 142.56 25.543C144.656 24.2539 147.11 23.6094 149.923 23.6094C152.735 23.6094 155.19 24.2539 157.286 25.543C159.382 26.832 161.01 28.6419 162.169 30.9727C163.328 33.3034 163.907 36.0247 163.907 39.1367C163.907 42.2357 163.328 44.944 162.169 47.2617C161.01 49.5794 159.382 51.3828 157.286 52.6719C155.19 53.9609 152.735 54.6055 149.923 54.6055ZM149.942 49.7031C151.765 49.7031 153.276 49.2214 154.474 48.2578C155.672 47.2943 156.557 46.0117 157.13 44.4102C157.716 42.8086 158.009 41.0443 158.009 39.1172C158.009 37.2031 157.716 35.4453 157.13 33.8437C156.557 32.2292 155.672 30.9336 154.474 29.957C153.276 28.9805 151.765 28.4922 149.942 28.4922C148.106 28.4922 146.583 28.9805 145.372 29.957C144.174 30.9336 143.282 32.2292 142.696 33.8437C142.123 35.4453 141.837 37.2031 141.837 39.1172C141.837 41.0443 142.123 42.8086 142.696 44.4102C143.282 46.0117 144.174 47.2943 145.372 48.2578C146.583 49.2214 148.106 49.7031 149.942 49.7031ZM181.094 54H168.145V14H181.504C185.423 14 188.789 14.8008 191.602 16.4023C194.414 17.9909 196.569 20.276 198.066 23.2578C199.577 26.2266 200.332 29.7878 200.332 33.9414C200.332 38.1081 199.57 41.6888 198.047 44.6836C196.536 47.6784 194.349 49.9831 191.484 51.5977C188.62 53.1992 185.156 54 181.094 54ZM174.18 48.7266H180.762C183.809 48.7266 186.341 48.1536 188.359 47.0078C190.378 45.849 191.888 44.1758 192.891 41.9883C193.893 39.7878 194.395 37.1055 194.395 33.9414C194.395 30.8034 193.893 28.1406 192.891 25.9531C191.901 23.7656 190.423 22.1055 188.457 20.9727C186.491 19.8398 184.049 19.2734 181.133 19.2734H174.18V48.7266ZM217.255 54.6055C214.442 54.6055 211.988 53.9609 209.892 52.6719C207.795 51.3828 206.168 49.5794 205.009 47.2617C203.85 44.944 203.271 42.2357 203.271 39.1367C203.271 36.0247 203.85 33.3034 205.009 30.9727C206.168 28.6419 207.795 26.832 209.892 25.543C211.988 24.2539 214.442 23.6094 217.255 23.6094C220.067 23.6094 222.522 24.2539 224.618 25.543C226.715 26.832 228.342 28.6419 229.501 30.9727C230.66 33.3034 231.239 36.0247 231.239 39.1367C231.239 42.2357 230.66 44.944 229.501 47.2617C228.342 49.5794 226.715 51.3828 224.618 52.6719C222.522 53.9609 220.067 54.6055 217.255 54.6055ZM217.274 49.7031C219.097 49.7031 220.608 49.2214 221.806 48.2578C223.004 47.2943 223.889 46.0117 224.462 44.4102C225.048 42.8086 225.341 41.0443 225.341 39.1172C225.341 37.2031 225.048 35.4453 224.462 33.8437C223.889 32.2292 223.004 30.9336 221.806 29.957C220.608 28.9805 219.097 28.4922 217.274 28.4922C215.438 28.4922 213.915 28.9805 212.704 29.957C211.506 30.9336 210.614 32.2292 210.028 33.8437C209.455 35.4453 209.169 37.2031 209.169 39.1172C209.169 41.0443 209.455 42.8086 210.028 44.4102C210.614 46.0117 211.506 47.2943 212.704 48.2578C213.915 49.2214 215.438 49.7031 217.274 49.7031Z" fill="white"/>
<path d="M38.4545 46.3181L27.7663 57H2.13209C1.56813 57.0011 1.02678 56.7783 0.626997 56.3805C0.227214 55.9827 0.00169755 55.4425 0 54.8785V20.6668C0 19.4961 0.950682 18.5454 2.12141 18.5454H36.3331C37.5039 18.5454 38.4545 19.5004 38.4545 20.6796V46.3181Z" fill="#1037B8"/>
<path d="M10.6776 48.4545C10.1136 48.4557 9.57225 48.2329 9.17247 47.8351C8.77268 47.4373 8.54717 46.8971 8.54547 46.3331V12.1214C8.54547 10.9507 9.49615 10 10.6669 10H44.8786C46.0493 10 47 10.955 47 12.1342V37.7727L36.3118 48.4545H10.6776ZM12.8182 44.1818H34.5429L42.7273 36.0017V14.2727H12.8182V44.1818Z" fill="white"/>
</svg>
