<svg width="50" height="50" viewBox="0 0 50 50" fill="none" xmlns="http://www.w3.org/2000/svg">
<g clip-path="url(#clip0_88_16)">
<rect width="50" height="50" rx="4" fill="url(#paint0_linear_88_16)"/>
<path d="M11.0021 36V30.3182L21.8544 21.3409C22.5741 20.7443 23.1896 20.1856 23.701 19.6648C24.2218 19.1345 24.6196 18.59 24.8942 18.0312C25.1783 17.4725 25.3203 16.8523 25.3203 16.1705C25.3203 15.4223 25.1593 14.7831 24.8374 14.2528C24.5249 13.7225 24.0893 13.3153 23.5305 13.0312C22.9718 12.7377 22.3279 12.5909 21.5987 12.5909C20.8696 12.5909 20.2256 12.7377 19.6669 13.0312C19.1177 13.3248 18.6915 13.7557 18.3885 14.3239C18.0855 14.892 17.9339 15.5833 17.9339 16.3977H10.4339C10.4339 14.3523 10.8932 12.5909 11.8118 11.1136C12.7304 9.63636 14.0277 8.5 15.7038 7.70455C17.38 6.90909 19.3449 6.51136 21.5987 6.51136C23.9283 6.51136 25.9453 6.88542 27.6499 7.63352C29.3639 8.37216 30.6849 9.41383 31.6129 10.7585C32.5504 12.1032 33.0192 13.6799 33.0192 15.4886C33.0192 16.6061 32.7872 17.7187 32.3232 18.8267C31.8591 19.9252 31.0258 21.142 29.8232 22.4773C28.6205 23.8125 26.9112 25.4034 24.6953 27.25L21.968 29.5227V29.6932H33.3317V36H11.0021Z" fill="url(#paint1_linear_88_16)"/>
<path d="M14.0021 40V34.3182L24.8544 25.3409C25.5741 24.7443 26.1896 24.1856 26.701 23.6648C27.2218 23.1345 27.6196 22.59 27.8942 22.0312C28.1783 21.4725 28.3203 20.8523 28.3203 20.1705C28.3203 19.4223 28.1593 18.7831 27.8374 18.2528C27.5249 17.7225 27.0893 17.3153 26.5305 17.0312C25.9718 16.7377 25.3279 16.5909 24.5987 16.5909C23.8696 16.5909 23.2256 16.7377 22.6669 17.0312C22.1177 17.3248 21.6915 17.7557 21.3885 18.3239C21.0855 18.892 20.9339 19.5833 20.9339 20.3977H13.4339C13.4339 18.3523 13.8932 16.5909 14.8118 15.1136C15.7304 13.6364 17.0277 12.5 18.7038 11.7045C20.38 10.9091 22.3449 10.5114 24.5987 10.5114C26.9283 10.5114 28.9453 10.8854 30.6499 11.6335C32.3639 12.3722 33.6849 13.4138 34.6129 14.7585C35.5504 16.1032 36.0192 17.6799 36.0192 19.4886C36.0192 20.6061 35.7872 21.7187 35.3232 22.8267C34.8591 23.9252 34.0258 25.142 32.8232 26.4773C31.6205 27.8125 29.9112 29.4034 27.6953 31.25L24.968 33.5227V33.6932H36.3317V40H14.0021Z" fill="white"/>
</g>
<defs>
<linearGradient id="paint0_linear_88_16" x1="50" y1="1.49012e-06" x2="-1.49012e-06" y2="50" gradientUnits="userSpaceOnUse">
<stop stop-color="#322DBC"/>
<stop offset="1" stop-color="#0267FF"/>
</linearGradient>
<linearGradient id="paint1_linear_88_16" x1="22" y1="-3" x2="22" y2="45" gradientUnits="userSpaceOnUse">
<stop stop-color="#0267FF"/>
<stop offset="1" stop-color="#322DBC"/>
</linearGradient>
<clipPath id="clip0_88_16">
<rect width="50" height="50" rx="4" fill="white"/>
</clipPath>
</defs>
</svg>
