<svg width="50" height="50" viewBox="0 0 50 50" fill="none" xmlns="http://www.w3.org/2000/svg">
<g clip-path="url(#clip0_88_16)">
<rect width="50" height="50" fill="url(#paint0_linear_88_16)"/>
<path d="M14.0021 40V34.3182L24.8544 25.3409C25.5741 24.7443 26.1896 24.1856 26.701 23.6648C27.2218 23.1345 27.6196 22.59 27.8942 22.0312C28.1783 21.4725 28.3203 20.8523 28.3203 20.1705C28.3203 19.4223 28.1593 18.7831 27.8374 18.2528C27.5249 17.7225 27.0893 17.3153 26.5305 17.0312C25.9718 16.7377 25.3279 16.5909 24.5987 16.5909C23.8696 16.5909 23.2256 16.7377 22.6669 17.0312C22.1177 17.3248 21.6915 17.7557 21.3885 18.3239C21.0855 18.892 20.9339 19.5833 20.9339 20.3977H13.4339C13.4339 18.3523 13.8932 16.5909 14.8118 15.1136C15.7304 13.6364 17.0277 12.5 18.7038 11.7045C20.38 10.9091 22.3449 10.5114 24.5987 10.5114C26.9283 10.5114 28.9453 10.8854 30.6499 11.6335C32.3639 12.3722 33.6849 13.4138 34.6129 14.7585C35.5504 16.1032 36.0192 17.6799 36.0192 19.4886C36.0192 20.6061 35.7872 21.7187 35.3232 22.8267C34.8591 23.9252 34.0258 25.142 32.8232 26.4773C31.6205 27.8125 29.9112 29.4034 27.6953 31.25L24.968 33.5227V33.6932H36.3317V40H14.0021Z" fill="white"/>
</g>
<defs>
<linearGradient id="paint0_linear_88_16" x1="50" y1="1.49012e-06" x2="-1.49012e-06" y2="50" gradientUnits="userSpaceOnUse">
<stop stop-color="#000D5E"/>
<stop offset="1" stop-color="#0267FF"/>
</linearGradient>
<clipPath id="clip0_88_16">
<rect width="50" height="50" fill="white"/>
</clipPath>
</defs>
</svg>
